<?xml version="1.0" standalone="no"?>
<!DOCTYPE svg PUBLIC "-//W3C//DTD SVG 20010904//EN"
 "http://www.w3.org/TR/2001/REC-SVG-20010904/DTD/svg10.dtd">
<svg version="1.0" xmlns="http://www.w3.org/2000/svg"
 width="512.000000pt" height="512.000000pt" viewBox="0 0 512.000000 512.000000"
 preserveAspectRatio="xMidYMid meet">
<metadata>
Created by potrace 1.11, written by Peter Selinger 2001-2013
</metadata>
<g transform="translate(0.000000,512.000000) scale(0.100000,-0.100000)"
fill="#000000" stroke="none">
<path d="M0 2560 l0 -2560 2560 0 2560 0 0 2560 0 2560 -2560 0 -2560 0 0
-2560z m1382 787 c32 -16 73 -46 92 -69 58 -67 69 -112 74 -300 l4 -168 -111
0 -111 0 0 130 c0 139 -9 179 -50 215 -15 14 -36 20 -70 20 -89 0 -120 -52
-120 -205 0 -157 23 -195 209 -344 131 -105 189 -166 223 -234 22 -44 23 -59
23 -237 0 -178 -2 -193 -24 -242 -51 -114 -158 -173 -311 -173 -154 0 -261 59
-311 173 -21 46 -24 71 -27 220 l-4 167 111 0 111 0 0 -125 c0 -180 26 -230
120 -230 54 0 84 20 106 72 19 43 19 223 0 266 -7 18 -57 73 -111 122 -189
172 -269 257 -300 320 -28 57 -30 67 -33 211 -5 218 22 310 113 380 64 48 128
65 240 62 86 -3 108 -7 157 -31z m1038 -92 l0 -105 -120 0 -120 0 0 -695 0
-695 -105 0 -105 0 0 695 0 695 -115 0 -115 0 0 105 0 105 340 0 340 0 0 -105z
m696 90 c59 -17 127 -73 153 -124 11 -20 24 -63 30 -96 16 -83 14 -387 -3
-456 -18 -77 -59 -144 -107 -176 -35 -23 -39 -30 -34 -52 6 -23 176 -616 191
-664 5 -16 -3 -17 -107 -15 l-112 3 -88 304 c-48 167 -90 315 -93 328 -6 20
-13 23 -51 23 l-45 0 0 -330 0 -330 -110 0 -110 0 0 800 0 800 218 0 c164 0
231 -4 268 -15z m638 -22 c3 -21 33 -292 66 -603 33 -311 63 -585 67 -610 7
-46 13 4 113 943 l33 307 109 0 109 0 -6 -32 c-2 -18 -46 -368 -95 -778 -50
-410 -93 -755 -95 -767 -5 -23 -8 -23 -163 -23 l-158 0 -97 788 c-54 433 -98
793 -97 800 0 9 28 12 104 12 l104 0 6 -37z"/>
<path d="M2850 2895 l0 -265 81 0 c92 0 112 8 136 53 15 27 18 59 18 207 0
198 -7 223 -65 252 -23 12 -58 18 -102 18 l-68 0 0 -265z"/>
</g>
</svg>
